<svg id="Layer_1" data-name="Layer 1" xmlns="http://www.w3.org/2000/svg" viewBox="0 0 561.87 312.26">
  <defs>
    <style>
      .cls-1 {
        fill: #e6e6e6;
        fill-rule: evenodd;
      }

      .cls-2 {
        fill: none;
      }
    </style>
  </defs>
  <title>azLogoName</title>
  <path class="cls-1" d="M52.36,516.37,15.55,479.55l96-213.77a2.24,2.24,0,0,1,4.09,0l24.63,54.82,71.42,159-96.51,96.51a2.25,2.25,0,0,1-3.17,0L76.77,540.77l51.72-115H93.07L52.36,516.37Zm144.29-39.62-18.84-41.94L128.22,545.18l68.43-68.43Zm-28.59-63.64L133.4,336,98.75,413.11Z" transform="translate(-15.55 -264.45)"/>
  <path class="cls-1" d="M499.46,415.52V446.8c0,6,.36,9.76,1.11,11.29a8,8,0,0,0,3.88,3.71c1.87.92,5.32,1.4,10.4,1.4V466H458.14V463.2c5.13,0,8.61-.48,10.42-1.42a8.31,8.31,0,0,0,3.85-3.71c.76-1.54,1.12-5.3,1.12-11.27V374.37c0-6-.36-9.76-1.12-11.29a8,8,0,0,0-3.87-3.71c-1.87-.92-5.33-1.4-10.4-1.4v-2.84h51.52q20.12,0,29.42,2.79a29.5,29.5,0,0,1,15.22,10.29,27.53,27.53,0,0,1,5.88,17.56,26.26,26.26,0,0,1-8.84,20.3q-5.64,5.1-15.81,7.61l26.57,37.56c3.52,4.82,6,7.83,7.5,9a14.16,14.16,0,0,0,7.81,2.76v3H542.5l-35.77-50.52Zm0-54.2v48.35h4.65q11.38,0,17-2.07a16.94,16.94,0,0,0,8.86-7.5c2.15-3.59,3.24-8.31,3.24-14.1q0-12.63-5.94-18.66t-19.1-6Z" transform="translate(-15.55 -264.45)"/>
  <path class="cls-1" d="M375.31,434h38.78l4.82,10.82a24.1,24.1,0,0,1,2.29,9,7.57,7.57,0,0,1-3.74,7c-1.47.87-5.1,1.54-10.87,2v2.85h36.83v-2.85a16.41,16.41,0,0,1-9.78-5c-2.57-2.73-5.75-8.36-9.48-16.89l-39.6-88.36H383l-39.95,90.81q-5.73,13.05-9.4,16.45c-1.86,1.73-4.46,2.7-7.86,3v2.85h53.59v-2.85h-2.2c-4.3,0-7.34-.61-9.06-1.84a4.38,4.38,0,0,1-1.79-3.79,10.32,10.32,0,0,1,.47-3.09c.12-.48.92-2.57,2.46-6.22L375.31,434Zm2.62-6,16.53-37.78L411.39,428Z" transform="translate(-15.55 -264.45)"/>
  <path class="cls-1" d="M261.86,435.8,248.25,466l-41.41-90.53c-4.2-9.17-7.06-14.75-8.64-16.67s-4.12-3-7.62-3.37l-.16-2.85h48l.15,2.85c-3.87.11-6.4.69-7.62,1.78a4.68,4.68,0,0,0-1.71,4q.16,3.13,4.72,13.3l18.09,39.59h0Z" transform="translate(-15.55 -264.45)"/>
  <path class="cls-1" d="M325.23,403.54c.9-37.44-2.27-48.1-33.25-48l-.16-3.08h56.4Z" transform="translate(-15.55 -264.45)"/>
  <path class="cls-1" d="M309.9,435.8,296.29,466l-41.41-90.53c-4.2-9.17-7.06-14.75-8.64-16.67s-4.12-3-7.63-3.37l-.15-2.85h48l.15,2.85c-3.87.11-6.4.69-7.62,1.78a4.72,4.72,0,0,0-1.72,4q.18,3.13,4.73,13.3l18.09,39.59h0Z" transform="translate(-15.55 -264.45)"/>
  <rect class="cls-2" width="561.87" height="312.26"/>
</svg>
