<?xml version="1.0" encoding="UTF-8"?>
<!DOCTYPE svg PUBLIC "-//W3C//DTD SVG 1.1//EN" "http://www.w3.org/Graphics/SVG/1.1/DTD/svg11.dtd">
<!-- Creator: CorelDRAW 2020 (64-Bit) -->
<svg xmlns="http://www.w3.org/2000/svg" xml:space="preserve" width="415px" height="415px" version="1.1" style="shape-rendering:geometricPrecision; text-rendering:geometricPrecision; image-rendering:optimizeQuality; fill-rule:evenodd; clip-rule:evenodd"
viewBox="0 0 4 4"
 xmlns:xlink="http://www.w3.org/1999/xlink"
 xmlns:xodm="http://www.corel.com/coreldraw/odm/2003">
 <defs>
  <style type="text/css">
   <![CDATA[
    .fil1 {fill:#F3E4CE}
    .fil0 {fill:#F3E4CE;fill-rule:nonzero}
   ]]>
  </style>
 </defs>
 <g id="Layer_x0020_1">
  <metadata id="CorelCorpID_0Corel-Layer"/>
  <path class="fil0" d="M4 0l0 4c0,0 0,0 0,0l-4 0c0,0 0,0 0,0l0 -4c0,0 0,0 0,0l4 0c0,0 0,0 0,0zm-1 0l-3 0 0 3 3 0 0 -3z"/>
  <path class="fil0" d="M3 4l-1 0 -1 -1 0 0 0 1 -1 0 0 -3 1 0 0 1 0 -1 0 0c0,0 0,0 0,0 0,0 0,0 0,0 0,0 0,0 0,0 0,0 0,0 0,1 0,0 0,0 0,0l1 1 0 0zm-1 -2c0,0 0,0 0,0 0,0 0,0 0,0 0,0 0,0 0,0 0,0 0,0 0,0l0 0 0 1 0 0c0,0 0,0 0,0 0,0 0,0 0,0 0,0 0,0 0,0 0,0 0,0 0,0z"/>
  <polygon class="fil1" points="2,4 2,4 2,4 2,3 3,4 3,4 3,4 "/>
  <path class="fil1" d="M3 0l0 0 0 0 0 1 0 -1 0 0c0,0 0,0 0,0l0 1 -1 -1 0 0 0 0 1 0z"/>
 </g>
</svg>
